<svg xmlns="http://www.w3.org/2000/svg" enable-background="new 0 0 512 512" viewBox="0 0 512 512" id="gmail"><polygon fill="none" points="125.4 195.2 26 116.4 26 382.6 193 248.9"></polygon><path fill="none" d="M302.8,261.6l-40.7,31.5c-0.2,0.2-0.5,0.3-0.7,0.5c-3.3,2.1-7.6,2.1-10.9,0c-0.2-0.2-0.5-0.3-0.7-0.5
		l-40.7-31.5L28.5,406.3h455.1L302.8,261.6z"></path><polygon fill="none" points="215.2 241 256 272.5 296.8 241 389.9 167.1 467.3 105.7 44.7 105.7 122.1 167.1"></polygon><polygon fill="none" points="386.6 195.2 319 248.9 486 382.6 486 116.4"></polygon><path fill="#231f20" d="M506,95.6c0-0.4,0-0.8-0.1-1.3c0-0.1,0-0.1,0-0.2c-0.1-0.4-0.1-0.8-0.3-1.2c0-0.1,0-0.1-0.1-0.2
		c0-0.1-0.1-0.3-0.1-0.4c-0.1-0.3-0.2-0.5-0.3-0.8c0,0,0-0.1,0-0.1c-0.2-0.4-0.4-0.7-0.6-1.1c0,0,0-0.1-0.1-0.1
		c-0.2-0.4-0.5-0.7-0.7-1c0,0-0.1-0.1-0.1-0.1c-0.3-0.3-0.5-0.6-0.8-0.9c-0.1,0-0.1-0.1-0.2-0.1c-0.3-0.3-0.6-0.5-1-0.7
		c-0.1,0-0.1-0.1-0.2-0.1c-0.4-0.2-0.7-0.4-1.1-0.6c0,0,0,0,0,0c0,0-0.1,0-0.1,0c-0.4-0.2-0.8-0.4-1.2-0.5c0,0,0,0,0,0
		c-0.4-0.1-0.8-0.2-1.3-0.3c0,0-0.1,0-0.1,0c-0.4-0.1-0.8-0.1-1.2-0.1c-0.1,0-0.1,0-0.2,0c-0.1,0-0.1,0-0.2,0H16c-0.1,0-0.1,0-0.2,0
		c-0.1,0-0.1,0-0.2,0c-0.4,0-0.8,0.1-1.2,0.1c0,0-0.1,0-0.1,0c-0.4,0.1-0.8,0.2-1.3,0.3c0,0,0,0,0,0c-0.4,0.1-0.8,0.3-1.2,0.5
		c0,0-0.1,0-0.1,0c0,0,0,0,0,0c-0.4,0.2-0.7,0.4-1.1,0.6c-0.1,0-0.1,0.1-0.2,0.1c-0.3,0.2-0.6,0.5-1,0.7c-0.1,0-0.1,0.1-0.2,0.1
		c-0.3,0.3-0.6,0.6-0.8,0.9c0,0-0.1,0.1-0.1,0.1c-0.3,0.3-0.5,0.7-0.7,1c0,0,0,0.1-0.1,0.1c-0.2,0.3-0.4,0.7-0.6,1.1
		c0,0,0,0.1,0,0.1c-0.1,0.3-0.2,0.5-0.3,0.8c0,0.1-0.1,0.3-0.1,0.4c0,0.1,0,0.1-0.1,0.2c-0.1,0.4-0.2,0.8-0.3,1.2c0,0.1,0,0.1,0,0.2
		C6,94.8,6,95.2,6,95.6c0,0,0,0,0,0.1v307.8v12.8c0,5.5,4.5,10,10,10h480c5.5,0,10-4.5,10-10v-12.8L506,95.6
		C506,95.7,506,95.7,506,95.6z M26,116.4l99.4,78.8l67.6,53.6L26,382.6V116.4z M209.2,261.6l40.7,31.5c0.2,0.2,0.5,0.3,0.7,0.5
		c3.3,2.1,7.6,2.1,10.9,0c0.2-0.2,0.5-0.3,0.7-0.5l40.7-31.5l180.7,144.7H28.5L209.2,261.6z M319,248.9l67.6-53.6l99.4-78.8v266.2
		L319,248.9z M467.3,105.7l-77.4,61.4L296.8,241L256,272.5L215.2,241l-93.1-73.8l-77.4-61.4H467.3z"></path></svg>