<svg xmlns="http://www.w3.org/2000/svg" viewBox="0 0 40 40" id="linkedin"><path d="M21.06 18.59zm0 0zm-.06.04zM31.93 6H8.07A2 2 0 0 0 6 8v24a2 2 0 0 0 2.07 2h23.86A2 2 0 0 0 34 32V8a2 2 0 0 0-2.07-2zM14.49 29.44h-4.23V16.79h4.23zm-2.12-14.37A2.18 2.18 0 0 1 10 12.89a2.21 2.21 0 0 1 2.4-2.19 2.19 2.19 0 1 1 0 4.37zm17.37 14.37h-4.23v-6.77c0-1.7-.61-2.85-2.14-2.85a2.31 2.31 0 0 0-2.17 1.53 2.92 2.92 0 0 0-.14 1v7.06h-4.23s.05-11.46 0-12.65h4.23v1.8a4.19 4.19 0 0 1 3.81-2.09c2.78 0 4.87 1.81 4.87 5.69zm-8.68-10.85zm0 0zm0 0zm0 0z"></path></svg>